<svg xmlns="http://www.w3.org/2000/svg" width="88" height="67" viewBox="0 0 88 67" version="1.1">
  <title>
    icon-crm
  </title>
  <desc>
    Created with Sketch.
  </desc>
  <g stroke="none" stroke-width="1" fill="none" fill-rule="evenodd" stroke-linecap="round" stroke-linejoin="round">
    <g transform="translate(-157.000000, -4974.000000)" stroke="#F1C40F" stroke-width="2">
      <g transform="translate(20.000000, 4115.000000)">
        <g transform="translate(0.000000, 818.000000)">
          <g transform="translate(138.095833, 42.000000)">
            <path d="M67.55 29L50.03 29"></path>
            <path d="M75.05 38L67.55 38"></path>
            <path d="M62.54 38L50.03 38"></path>
            <path d="M72.55 46L60.04 46"></path>
            <path d="M55.04 46L50.03 46"></path>
            <path d="M41.28 35L41.28 33.75C41.28 30.3 38.48 27.5 35.02 27.5L30.02 27.5C26.57 27.5 23.77 30.3 23.77 33.75L23.77 35C23.07 35 22.52 35.56 22.52 36.25L22.52 38.75C22.52 39.44 23.07 40 23.77 40 23.77 42.5 25.02 45 25.02 45 26.27 47.5 27.69 50 32.52 50 37.36 50 38.78 47.5 40.03 45 40.03 45 41.28 42.5 41.28 40 41.97 40 42.53 39.44 42.53 38.75L42.53 36.25C42.53 35.56 41.97 35 41.28 35L41.28 35Z"></path>
            <path d="M36.28 36L35.02 36"></path>
            <path d="M30.02 36L28.77 36"></path>
            <path d="M75.31 65L80.06 65C82.82 65 85.06 62.76 85.06 60L85.06 17.5C85.06 14.74 82.82 12.5 80.06 12.5L58.79 12.5 36.28 12.5 17.51 12.5C14.75 12.5 12.51 14.74 12.51 17.5L12.51 60C12.51 62.76 14.75 65 17.51 65L22.29 65"></path>
            <path d="M78.8 11.25C78.8 8.49 76.56 6.25 73.8 6.25L52.54 6.25 30.02 6.25 11.26 6.25C8.49 6.25 6.25 8.49 6.25 11.25L6.25 53.75C6.25 56.51 8.49 58.75 11.26 58.75"></path>
            <path d="M72.55 5C72.55 2.24 70.31 0 67.55 0L46.28 0 23.77 0 5 0C2.24 0 0 2.24 0 5L0 47.5C0 50.26 2.24 52.5 5 52.5"></path>
            <path d="M32.63 63L64.97 63"></path>
          </g>
        </g>
      </g>
    </g>
  </g>
</svg>
