<svg xmlns="http://www.w3.org/2000/svg" width="78" height="57" viewBox="0 0 78 57" version="1.1">
  <title>
    icon-payments
  </title>
  <desc>
    Created with Sketch.
  </desc>
  <g stroke="none" stroke-width="1" fill="none" fill-rule="evenodd" stroke-linecap="round" stroke-linejoin="round">
    <g transform="translate(-523.000000, -4732.000000)" stroke="#79BE37" stroke-width="2">
      <g transform="translate(20.000000, 4115.000000)">
        <g transform="translate(361.000000, 582.000000)">
          <g transform="translate(143.099306, 36.000000)">
            <path d="M75.05 18.07L75.05 5.16C75.05 2.31 72.73 0 69.88 0L5.18 0C2.32 0 0 2.31 0 5.16L0 12.91 69.88 12.91"></path>
            <path d="M5.18 23.23L75.05 23.23 75.05 49.05C75.05 51.9 72.73 54.21 69.88 54.21L5.18 54.21C2.32 54.21 0 51.9 0 49.05L0 20.65"></path>
            <path d="M10.35 36.14L28.47 36.14"></path>
            <path d="M33.64 36.14L44 36.14"></path>
            <path d="M10.35 41.3L33.64 41.3"></path>
          </g>
        </g>
      </g>
    </g>
  </g>
</svg>
