<svg xmlns="http://www.w3.org/2000/svg" xmlns:xlink="http://www.w3.org/1999/xlink" width="76" height="76" viewBox="0 0 76 76" version="1.1">
  <title>
    icon-emails-delivered
  </title>
  <desc>
    Created with Sketch.
  </desc>
  <g stroke="none" stroke-width="1" fill="none" fill-rule="evenodd" stroke-linecap="round" stroke-linejoin="round">
    <g transform="translate(-162.000000, -4722.000000)" stroke="#28BBF8" stroke-width="2">
      <g transform="translate(20.000000, 4115.000000)">
        <g transform="translate(0.000000, 582.000000)">
          <g transform="translate(143.099306, 26.000000)">
            <path d="M48.33 2.97L72.26 26.89C74.27 28.89 74.27 32.14 72.26 34.14L34.16 72.22C32.16 74.23 28.91 74.23 26.91 72.22L2.96 48.29"></path>
            <path d="M43.24 0L43.24 38.14C43.24 40.94 40.98 43.22 38.15 43.22L0 43.22 0.01 43.22C0 41.9 0.5 40.59 1.51 39.58L39.61 1.5C40.61 0.5 41.92 0 43.23 0"></path>
            <path d="M30.52 48.31L30.52 66.1"></path>
            <path d="M66.14 30.51L48.33 30.51"></path>
            <path d="M0 73.73L17.81 73.73"></path>
            <path d="M0 66.1L10.17 66.1"></path>
            <path d="M0 58.47L5.09 58.47"></path>
          </g>
        </g>
      </g>
    </g>
  </g>
</svg>
