<svg xmlns="http://www.w3.org/2000/svg" width="101" height="77" viewBox="0 0 101 77" version="1.1">
  <title>
    icon-campaigns
  </title>
  <desc>
    Created with Sketch.
  </desc>
  <g stroke="none" stroke-width="1" fill="none" fill-rule="evenodd" stroke-linecap="round" stroke-linejoin="round">
    <g transform="translate(-511.000000, -4973.000000)" stroke="#E24926" stroke-width="2">
      <g transform="translate(20.000000, 4115.000000)">
        <g transform="translate(361.000000, 818.000000)">
          <g transform="translate(131.090972, 41.000000)">
            <path d="M61.58 26.08L55.22 24.66C54.69 22.8 53.96 21.02 53.04 19.37L56.54 13.84C56.92 13.17 56.96 12.73 56.54 12.31L50.43 6.17C50 5.74 49.55 5.83 48.9 6.17L43.41 9.68C41.76 8.76 39.99 8.02 38.14 7.49L36.73 1.1C36.53 0.36 36.25 0.02 35.65 0.01L27.01 0.01C26.41 0.01 26.15 0.4 25.93 1.1L24.52 7.49C22.66 8.02 20.9 8.76 19.25 9.68L13.76 6.17C13.09 5.78 12.65 5.74 12.23 6.17L6.12 12.31C5.7 12.73 5.79 13.19 6.12 13.84L9.62 19.36C8.7 21.02 7.96 22.79 7.44 24.66L1.08 26.08C0.34 26.28 0 26.56 0 27.16L0 35.85C0 36.45 0.38 36.71 1.08 36.93L7.44 38.35C7.96 40.22 8.7 41.99 9.61 43.65L6.12 49.16C5.74 49.84 5.7 50.28 6.12 50.7L12.23 56.84C12.65 57.27 13.11 57.18 13.76 56.84L19.25 53.33C20.9 54.25 22.66 54.99 24.52 55.52L25.93 61.91C26.13 62.66 26.41 62.99 27.01 62.99L35.65 62.99C36.25 62.99 36.5 62.61 36.73 61.91L38.14 55.52C39.99 54.99 41.76 54.25 43.41 53.33L48.9 56.84C49.57 57.23 50 57.27 50.43 56.84L56.54 50.7C56.96 50.28 56.87 49.82 56.54 49.16L53.04 43.65C53.96 41.99 54.69 40.22 55.22 38.35L61.58 36.93C62.32 36.73 62.66 36.45 62.66 35.85L62.66 27.16C62.66 26.56 62.27 26.3 61.58 26.08L61.58 26.08Z"></path>
            <path d="M35.65 44.94C41.29 43.11 45.37 37.79 45.37 31.51 45.37 23.71 39.09 17.39 31.33 17.39 23.57 17.39 17.28 23.71 17.28 31.51 17.28 39.3 23.57 45.62 31.33 45.62"></path>
            <path d="M34.57 31.51C34.57 29.71 33.12 28.25 31.33 28.25 29.54 28.25 28.09 29.71 28.09 31.51 28.09 33.3 29.54 34.76 31.33 34.76 33.12 34.76 34.57 33.3 34.57 31.51L34.57 31.51Z"></path>
            <path d="M97.66 52.66L93.82 51.8C93.5 50.68 93.06 49.61 92.51 48.61L94.61 45.28C94.84 44.88 94.87 44.61 94.61 44.35L90.93 40.65C90.67 40.39 90.4 40.45 90.01 40.65L86.69 42.77C85.7 42.21 84.63 41.76 83.51 41.44L82.66 37.59C82.54 37.14 82.37 36.93 82.01 36.93L76.8 36.93C76.43 36.93 76.28 37.17 76.14 37.59L75.29 41.44C74.17 41.76 73.11 42.21 72.11 42.77L68.8 40.65C68.4 40.42 68.13 40.39 67.88 40.65L64.19 44.35C63.94 44.61 63.99 44.88 64.19 45.28L66.3 48.61C65.75 49.61 65.3 50.68 64.98 51.8L61.15 52.66C60.7 52.78 60.5 52.95 60.5 53.32L60.5 58.56C60.5 58.92 60.73 59.08 61.15 59.21L64.98 60.07C65.3 61.19 65.75 62.26 66.3 63.26L64.19 66.59C63.96 67 63.94 67.26 64.19 67.52L67.88 71.23C68.13 71.48 68.41 71.43 68.8 71.23L72.11 69.11C73.11 69.66 74.17 70.11 75.29 70.43L76.14 74.28C76.26 74.74 76.43 74.94 76.8 74.94L82.01 74.94C82.37 74.94 82.52 74.71 82.66 74.28L83.51 70.43C84.63 70.11 85.7 69.66 86.69 69.11L90.01 71.23C90.41 71.46 90.67 71.48 90.93 71.23L94.61 67.52C94.87 67.26 94.82 66.99 94.61 66.59L92.51 63.26C93.06 62.26 93.5 61.19 93.82 60.07L97.66 59.21C98.1 59.09 98.31 58.92 98.31 58.56L98.31 53.32C98.31 52.95 98.08 52.8 97.66 52.66L97.66 52.66Z"></path>
            <path d="M86.42 55.94C86.42 52.04 83.28 48.88 79.4 48.88 75.53 48.88 72.38 52.04 72.38 55.94 72.38 59.84 75.53 62.99 79.4 62.99 83.28 62.99 86.42 59.84 86.42 55.94L86.42 55.94Z"></path>
          </g>
        </g>
      </g>
    </g>
  </g>
</svg>
