<svg xmlns="http://www.w3.org/2000/svg" width="97" height="97" viewBox="0 0 97 97" version="1.1">
  <title>
    icon-users
  </title>
  <desc>
    Created with Sketch.
  </desc>
  <g stroke="none" stroke-width="1" fill="none" fill-rule="evenodd" stroke-linecap="round" stroke-linejoin="round">
    <g transform="translate(-111.000000, -4536.000000)" stroke="#8467CB" stroke-width="2">
      <g transform="translate(10.000000, 4355.000000)">
        <g transform="translate(0.000000, 111.000000)">
          <g transform="translate(9.000000, 71.000000)">
            <path d="M187.37 47.05C187.37 73.03 166.3 94.09 140.3 94.09 114.29 94.09 93.22 73.03 93.22 47.05 93.22 21.06 114.29 0 140.3 0 166.3 0 187.37 21.06 187.37 47.05L187.37 47.05 187.37 47.05ZM175.09 50.26C175.09 66.62 159.51 82.99 140.3 82.99 121.08 82.99 105.5 66.62 105.5 50.26L175.09 50.26 175.09 50.26 175.09 50.26ZM113.69 28.64C113.69 24.11 117.35 20.46 121.87 20.46 126.4 20.46 130.06 24.11 130.06 28.64M150.53 28.64C150.53 24.11 154.19 20.46 158.72 20.46 163.24 20.46 166.91 24.11 166.91 28.64"></path>
          </g>
        </g>
      </g>
    </g>
  </g>
</svg>
