<?xml version="1.0" encoding="utf-8"?>
<!-- Generator: Adobe Illustrator 17.1.0, SVG Export Plug-In . SVG Version: 6.00 Build 0)  -->
<!DOCTYPE svg PUBLIC "-//W3C//DTD SVG 1.1//EN" "http://www.w3.org/Graphics/SVG/1.1/DTD/svg11.dtd">
<svg version="1.1" id="Layer_1" xmlns="http://www.w3.org/2000/svg" xmlns:xlink="http://www.w3.org/1999/xlink" x="0px" y="0px"
	 viewBox="0 0 500 216.5" enable-background="new 0 0 500 216.5" xml:space="preserve">
<g>
	<g>
		<polygon fill="#E24926" points="11.7,115.4 47.2,93.4 47.2,64.3 11.7,86.3 		"/>
		<polygon opacity="0.5" fill="#5F5D61" points="50.5,129.3 11.7,115.4 11.7,86.3 50.5,100.2 		"/>
	</g>
	<g>
		<path fill="#444445" d="M453.8,150c-5.6,0-8.2,2.9-8.2,9.1c0,6.2,2.6,9.1,8.1,9.1c5.6,0,8.2-2.9,8.2-9.1
			C461.9,152.9,459.3,150,453.8,150z M453.8,166.5c-2.9,0-6.2-0.8-6.2-7.5c0-5.2,1.8-7.5,6.2-7.5c2.9,0,6.2,0.9,6.2,7.5
			C459.9,164.3,458.1,166.5,453.8,166.5z"/>
		<path fill="#444445" d="M437.7,158c-3.8-0.5-5-0.7-5-3.2c0-2,0.8-3.1,4.8-3.1c1.6,0,3.9,0.2,5,0.5l-0.4-1.6
			c-1.4-0.3-3-0.5-4.6-0.5c-5.9,0-6.7,2.4-6.7,4.8c0,3.5,1.3,4.1,6.6,4.8c3.1,0.4,4.5,0.7,4.5,3.2c0,2.8-1.1,3.6-5.3,3.6
			c-1.8,0-4.1-0.4-5.3-0.7l0.4,1.8c1.5,0.4,3.4,0.6,4.9,0.6c5.5,0,7.2-1.3,7.2-5.3C443.9,159.4,442.4,158.6,437.7,158z"/>
		<path fill="#444445" d="M467.4,150.6v-4.5c0-2.6,0.5-3.4,4.3-4.4l-0.4-1.6c-4.9,1.2-5.8,2.6-5.8,5.9v4.6h-3.3l0.4,1.7h2.9v15.5
			h1.9v-15.5h5l-0.4-1.7H467.4z"/>
		<path fill="#444445" d="M480.2,166.2c-1.6,0-1.7-1.4-1.7-2.9v-11h4l-0.4-1.7h-3.6V144l-1.9,0.5v6.1h-3l0.4,1.7h2.6v11.3
			c0,3,1.1,4.3,3.3,4.3c1,0,1.9-0.1,3.5-0.3l-0.2-1.7C482,166.1,481.2,166.2,480.2,166.2z"/>
		<path fill="#444445" d="M334.8,150.1c-2.5,0-5.2,1.2-6.2,1.8l-0.3-1.4h-2.8v17.4h3.7V155c1.2-0.6,3.5-1.4,5.1-1.4
			c1.8,0,2.2,0.4,2.2,2.3v12h3.7v-12.4C340.3,151.9,338.4,150.1,334.8,150.1z"/>
		<path fill="#444445" d="M348.4,150.5v-3c0-1.8,0-2.3,3.6-3.1l0.5-0.1l-0.8-3.4l-0.5,0.1c-5,1.1-6.5,2.5-6.5,6.4v3.1h-3.1l0.9,3.5
			h2.2v13.8h3.7V154h5v-0.2l-0.8-3.3H348.4z"/>
		<path fill="#444445" d="M366.2,163.3c-1.2,0.6-3.5,1.4-5.1,1.4c-1.8,0-2.2-0.4-2.2-2.3v-12h-3.7v12.4c0,3.5,1.8,5.3,5.4,5.3
			c2.5,0,5.2-1.2,6.2-1.8l0.3,1.4h2.7v-17.4h-3.7V163.3z"/>
		<polygon fill="#444445" points="318.6,167.8 322.3,167.8 322.3,143 318.6,144.1 		"/>
		<path fill="#444445" d="M402.5,149.9c-5.6,0-8.3,3-8.3,9.2c0,6.1,2.7,9.1,8.3,9.1c5.6,0,8.3-3,8.3-9.2
			C410.7,152.9,408,149.9,402.5,149.9z M402.5,164.8c-2.3,0-4.6-0.4-4.6-5.7c0-4.8,1.7-5.7,4.5-5.7c2.3,0,4.6,0.4,4.6,5.7
			C407,163.8,405.3,164.8,402.5,164.8z"/>
		<path fill="#444445" d="M421.9,150.1c-2.5,0-5.2,1.2-6.2,1.8l-0.3-1.4h-2.8v17.4h3.7V155c1.1-0.5,3.4-1.4,5.1-1.4
			c1.8,0,2.2,0.4,2.2,2.3v12h3.7v-12.4C427.3,151.9,425.5,150.1,421.9,150.1z"/>
		<polygon fill="#444445" points="388.3,167.8 392,167.8 392,150.1 388.3,151.1 		"/>
		<path fill="#444445" d="M379.6,157.2c-3.6-0.4-3.6-0.6-3.6-1.8c0-1,0-1.8,3.3-1.8c1.4,0,3.7,0.2,4.5,0.4l1.4,0.5l-1-3.8l-0.1,0
			c-1.4-0.4-3.2-0.6-4.8-0.6c-4.8,0-7,1.7-7,5.3c0,4.2,2.3,4.7,6.8,5.3c3.1,0.4,3.2,0.7,3.2,1.8c0,1.5,0,2.2-3.7,2.2
			c-1.7,0-4.1-0.5-5-0.8l-1.2-0.4l1,3.9l0.1,0c1.5,0.4,3.5,0.7,5.1,0.7c4.6,0,7.4-0.9,7.4-5.7C386,158.7,383.9,157.8,379.6,157.2z"
			/>
		<path fill="#444445" d="M280.6,165.8c-2.3,0-4.2-1.2-5.4-2.8v1.4c0,0.7-0.6,1.2-1.3,1.2c-0.7,0-1.2-0.6-1.2-1.2v-20.2
			c0-0.6,0.6-1.2,1.3-1.2c0.6,0,1.2,0.6,1.2,1.2v7.6c1.3-1.8,3.2-2.8,5.4-2.8c4.2,0,7.2,3.3,7.2,8.5
			C287.8,162.6,284.8,165.8,280.6,165.8z M280,151.1c-2,0-3.9,1.2-4.8,2.6v7.3c0.9,1.4,2.8,2.5,4.8,2.5c3.3,0,5.2-2.6,5.2-6.2
			C285.2,153.8,283.3,151.1,280,151.1z"/>
		<path fill="#444445" d="M305,150.7l-7.5,17.9c-1,2.3-2.7,3.3-4.7,3.3c-0.9,0-2-0.1-2-1.1c0-0.7,0.5-1.1,1.1-1.1c0.3,0,0.6,0,0.8,0
			c1,0,1.8-0.4,2.4-1.7l1.1-2.4l-6.1-14.8c-0.1-0.1-0.1-0.3-0.1-0.4c0-0.6,0.5-1.2,1.3-1.2c0.5,0,1,0.3,1.2,0.8l5.1,12.7l5.1-12.7
			c0.2-0.5,0.7-0.8,1.2-0.8c0.7,0,1.3,0.6,1.3,1.2C305.1,150.4,305.1,150.6,305,150.7z"/>
		<path fill="#433F42" d="M490.4,166.3c0,1.3-1,2.3-2.4,2.3c-1.3,0-2.4-1-2.4-2.3c0-1.3,1-2.3,2.4-2.3
			C489.4,164,490.4,165,490.4,166.3z M486.3,166.3c0,1,0.8,1.8,1.8,1.8c1,0,1.7-0.8,1.7-1.8c0-1-0.8-1.8-1.8-1.8
			C487.1,164.5,486.3,165.3,486.3,166.3z M487.7,167.5h-0.5v-2.3c0.2,0,0.5-0.1,0.9-0.1c0.4,0,0.6,0.1,0.8,0.2
			c0.1,0.1,0.2,0.3,0.2,0.5c0,0.3-0.2,0.5-0.5,0.5v0c0.2,0.1,0.3,0.3,0.4,0.6c0.1,0.3,0.1,0.5,0.2,0.6h-0.6
			c-0.1-0.1-0.1-0.3-0.2-0.6c0-0.2-0.2-0.3-0.5-0.3h-0.2V167.5z M487.7,166.2h0.3c0.3,0,0.5-0.1,0.5-0.3c0-0.2-0.2-0.3-0.5-0.3
			c-0.1,0-0.2,0-0.3,0V166.2z"/>
		<polygon fill="#444445" points="388.3,149.3 392,148.2 392,144 388.3,145 		"/>
	</g>
	<g>
		<path fill="#E24926" d="M106.8,78.8c0.6,0.7,0.9,1.5,0.9,2.3c0,1.8-1.5,3.4-3.4,3.4c-0.9,0-1.9-0.4-2.5-1.2
			c-2.9-3.3-7.4-5.3-11.6-5.3c-10.2,0-17.8,7.8-17.8,18.8c0,10.9,7.6,18.8,17.8,18.8c4.3,0,8.6-1.9,11.6-5.3
			c0.6-0.7,1.6-1.2,2.6-1.2c1.9,0,3.4,1.6,3.4,3.4c0,0.9-0.3,1.7-0.9,2.3c-3.8,4.1-9.1,7.2-16.7,7.2c-14.2,0-25.4-10.2-25.4-25.2
			c0-15,11.2-25.2,25.4-25.2C97.7,71.6,103,74.7,106.8,78.8z"/>
		<path fill="#E24926" d="M139.8,121.6c-1.8,0-3.2-1.5-3.2-3.2v-2c-2.6,3-7.2,5.7-12.6,5.7c-7.5,0-11.3-3.7-11.3-11.2V88.6
			c0-1.7,1.5-3.1,3.4-3.1c1.7,0,3.1,1.5,3.1,3.1v20c0,5.9,3,7.7,7.5,7.7c4.1,0,7.8-2.3,9.8-5V88.6c0-1.7,1.5-3.1,3.4-3.1
			c1.7,0,3.1,1.5,3.1,3.1v29.8C143.1,120.2,141.6,121.6,139.8,121.6z"/>
		<path fill="#E24926" d="M162.8,122.1c-4.8,0-10.2-1.4-13.4-4.6c-0.5-0.4-0.8-1-0.8-1.8c0-1.5,1.3-2.7,2.9-2.7
			c0.7,0,1.2,0.1,1.7,0.5c2.6,1.9,6.3,3.4,9.9,3.4c5,0,7.7-2.3,7.7-5.5c0-7.8-21.6-2.7-21.6-16c0-5.6,4.8-10.4,13.5-10.4
			c5,0,9.5,1.5,12.3,4.2c0.4,0.4,0.7,1,0.7,1.6c0,1.5-1.2,2.6-2.6,2.6c-0.6,0-1.1-0.1-1.5-0.5c-2.3-1.6-5.4-2.7-8.8-2.7
			c-4.5,0-7.2,2.1-7.2,5c0,7.1,21.7,2.2,21.7,16.1C177.2,117.2,172.2,122.1,162.8,122.1z"/>
		<path fill="#E24926" d="M193.6,122.1c-5.6,0-8.5-3.1-8.5-8.6V91.6h-3.4c-1.6,0-2.9-1.2-2.9-2.9c0-1.5,1.2-2.8,2.9-2.8h3.4v-6.9
			c0-1.7,1.5-3.1,3.4-3.1c1.8,0,3.2,1.5,3.2,3.1v6.9h4.8c1.5,0,2.8,1.2,2.8,2.9c0,1.5-1.2,2.8-2.8,2.8h-4.8v20.3
			c0,2.7,1.3,4.4,3.4,4.4c0.8,0,1.7-0.4,2.4-0.4c1.6,0,2.8,1.2,2.8,2.7C200.3,121,197.5,122.1,193.6,122.1z"/>
		<path fill="#E24926" d="M218.4,122.1c-11,0-17.8-8.4-17.8-18.6c0-10.2,6.8-18.5,17.8-18.5c11,0,17.8,8.3,17.8,18.5
			C236.2,113.6,229.4,122.1,218.4,122.1z M218.4,90.7c-7,0-11,6-11,12.7c0,6.8,4,12.8,11,12.8c7.1,0,11-6,11-12.8
			C229.4,96.7,225.5,90.7,218.4,90.7z"/>
		<path fill="#E24926" d="M288.3,121.6c-1.8,0-3.2-1.5-3.2-3.2V97.6c0-4.2-1.8-6.9-6.1-6.9c-3.6,0-7.2,2.6-8.9,5.1v22.5
			c0,1.8-1.5,3.2-3.3,3.2c-1.8,0-3.2-1.5-3.2-3.2V97.6c0-4.2-1.8-6.9-6.2-6.9c-3.4,0-6.9,2.6-8.7,5.2v22.5c0,1.8-1.5,3.2-3.3,3.2
			c-1.8,0-3.2-1.5-3.2-3.2V88.6c0-1.7,1.5-3.1,3.4-3.1c1.7,0,3.1,1.5,3.1,3.1v2.3c1.5-2.2,6.1-5.9,11.4-5.9c5.4,0,8.5,2.8,9.6,6.5
			c2-3.2,6.7-6.5,11.9-6.5c6.5,0,10,3.5,10,10.7v22.8C291.6,120.2,290.2,121.6,288.3,121.6z"/>
		<path fill="#E24926" d="M328.9,105.6h-24.6c0.5,6.1,4.9,11.2,12.1,11.2c3,0,6.2-1,8.8-2.9c0.4-0.2,1-0.4,1.5-0.4
			c1.2,0,2.6,1,2.6,2.6c0,4-9.1,5.9-13.5,5.9c-10.5,0-18.2-7.5-18.2-18.6c0-10.2,7.4-18.5,17.6-18.5c8.6,0,14.4,5.3,16.5,13.2
			c0.3,1.2,0.7,2.7,0.7,4.1C332.3,104.1,330.7,105.6,328.9,105.6z M315.1,90.2c-7,0-10.5,5.9-10.8,10.8H326
			C325.8,96.2,322.6,90.2,315.1,90.2z"/>
		<path fill="#E24926" d="M353,91.7c-3.4,0.3-6.7,1.8-8.8,4.9v21.8c0,1.8-1.5,3.2-3.3,3.2h-0.1c-1.8-0.1-3.1-1.5-3.1-3.2V88.6
			c0-1.7,1.5-3.1,3.4-3.1c1.7,0,3.1,1.5,3.1,3.1v2.8c2-2.7,5.2-6,9.1-6c1.7,0,2.9,1.2,2.9,2.9C356.3,90.2,354.9,91.6,353,91.7z"/>
		<path fill="#444444" d="M399.3,121.6c-2,0-3.7-1.6-3.7-3.6V99.3h-27V118c0,2-1.6,3.6-3.7,3.6c-2,0-3.6-1.6-3.6-3.6V75.5
			c0-1.9,1.6-3.5,3.7-3.5c1.9,0,3.5,1.6,3.5,3.5v17.4h27V75.5c0-1.9,1.6-3.5,3.8-3.5c1.9,0,3.5,1.6,3.5,3.5V118
			C402.9,120,401.3,121.6,399.3,121.6z"/>
		<path fill="#444444" d="M438.6,121.6c-1.8,0-3.2-1.5-3.2-3.2v-2c-2.6,3-7.2,5.7-12.6,5.7c-7.5,0-11.3-3.7-11.3-11.2V88.6
			c0-1.7,1.5-3.1,3.4-3.1c1.7,0,3.1,1.5,3.1,3.1v20c0,5.9,3,7.7,7.5,7.7c4.1,0,7.8-2.3,9.8-5V88.6c0-1.7,1.5-3.1,3.4-3.1
			c1.7,0,3.1,1.5,3.1,3.1v29.8C441.9,120.2,440.4,121.6,438.6,121.6z"/>
		<path fill="#444444" d="M467.9,122.1c-4.8,0-9-2.4-11.6-5.9v2.3c0,1.8-1.5,3.2-3.3,3.2c-1.8,0-3.2-1.5-3.2-3.2V75.1
			c0-1.7,1.5-3.1,3.4-3.1c1.7,0,3.1,1.5,3.1,3.1V91c2.9-3.8,6.9-6,11.6-6c9.1,0,15.7,7.2,15.7,18.6
			C483.6,115.1,477.1,122.1,467.9,122.1z M466.1,90.7c-4,0-8,2.4-9.8,5.3v15.1c1.8,2.9,5.9,5.1,9.8,5.1c6.7,0,10.8-5.3,10.8-12.7
			S472.8,90.7,466.1,90.7z"/>
	</g>
</g>
</svg>
