<?xml version="1.0" encoding="utf-8"?>
<!-- Generator: Adobe Illustrator 17.1.0, SVG Export Plug-In . SVG Version: 6.00 Build 0)  -->
<!DOCTYPE svg PUBLIC "-//W3C//DTD SVG 1.1//EN" "http://www.w3.org/Graphics/SVG/1.1/DTD/svg11.dtd">
<svg version="1.1" id="Layer_1" xmlns="http://www.w3.org/2000/svg" xmlns:xlink="http://www.w3.org/1999/xlink" x="0px" y="0px"
	 viewBox="0 0 239 46" enable-background="new 0 0 239 46" xml:space="preserve">
<g>
	<polygon fill="#52A2D9" points="1.7,23.5 17.6,13.7 17.6,0.7 1.7,10.5 	"/>
	<polygon opacity="0.5" fill="#5F5D61" enable-background="new    " points="18.8,29.6 1.7,23.5 1.7,10.6 18.8,16.8 	"/>
	<g>
		<g>
			<path fill="#444445" d="M142,36.7c-2.3,0-3.4,1.2-3.4,3.7c0,2.5,1.1,3.7,3.3,3.7c2.3,0,3.4-1.2,3.4-3.7S144.3,36.7,142,36.7z
				 M142,43.5c-1.2,0-2.5-0.4-2.5-3.1c0-2.1,0.8-3.1,2.5-3.1c1.2,0,2.5,0.4,2.5,3.1C144.5,42.6,143.8,43.5,142,43.5z"/>
			<path fill="#444445" d="M135.4,40c-1.6-0.2-2-0.3-2-1.3c0-0.8,0.3-1.3,2-1.3c0.6,0,1.6,0.1,2.1,0.2l-0.2-0.7
				c-0.6-0.1-1.3-0.2-1.9-0.2c-2.4,0-2.8,1-2.8,2c0,1.5,0.6,1.7,2.7,2c1.3,0.2,1.9,0.3,1.9,1.3c0,1.2-0.5,1.5-2.2,1.5
				c-0.7,0-1.7-0.2-2.2-0.3l0.2,0.7c0.6,0.2,1.4,0.2,2,0.2c2.2,0,3-0.5,3-2.2C137.9,40.6,137.3,40.3,135.4,40z"/>
			<path fill="#444445" d="M147.6,37v-1.8c0-1.1,0.2-1.4,1.8-1.8l-0.2-0.7c-2,0.5-2.4,1.1-2.4,2.4V37h-1.4l0.2,0.7h1.2V44h0.8v-6.3
				h2l-0.2-0.7L147.6,37L147.6,37z"/>
			<path fill="#444445" d="M152.9,43.4c-0.7,0-0.7-0.6-0.7-1.2v-4.5h1.6l-0.2-0.7h-1.5v-2.7l-0.8,0.2V37h-1.2l0.2,0.7h1.1v4.6
				c0,1.2,0.4,1.8,1.4,1.8c0.4,0,0.8,0,1.5-0.1l-0.1-0.7C153.6,43.3,153.2,43.4,152.9,43.4z"/>
			<path fill="#444445" d="M93.2,36.8c-1,0-2.1,0.5-2.5,0.7l-0.1-0.6h-1.1V44h1.5v-5.3c0.5-0.2,1.4-0.6,2.1-0.6
				c0.7,0,0.9,0.2,0.9,0.9V44h1.5v-5.1C95.5,37.5,94.7,36.8,93.2,36.8z"/>
			<path fill="#444445" d="M98.8,36.9v-1.2c0-0.7,0-0.9,1.5-1.3l0.2-0.1l-0.3-1.4l-0.2,0c-2.1,0.5-2.7,1.1-2.7,2.6v1.3H96l0.4,1.4
				h0.9V44h1.5v-5.7h2.1v-0.1l-0.3-1.4L98.8,36.9L98.8,36.9L98.8,36.9z"/>
			<path fill="#444445" d="M106.1,42.2c-0.5,0.2-1.4,0.6-2.1,0.6c-0.7,0-0.9-0.2-0.9-0.9v-4.9h-1.5V42c0,1.5,0.8,2.2,2.2,2.2
				c1,0,2.1-0.5,2.5-0.7l0.1,0.6h1.1v-7.1h-1.5L106.1,42.2L106.1,42.2L106.1,42.2z"/>
			<polygon fill="#444445" points="86.6,44 88.1,44 88.1,33.9 86.6,34.3 			"/>
			<path fill="#444445" d="M121,36.7c-2.3,0-3.4,1.2-3.4,3.8s1.1,3.8,3.4,3.8s3.4-1.2,3.4-3.8C124.4,37.9,123.2,36.7,121,36.7z
				 M121,42.8c-0.9,0-1.9-0.2-1.9-2.3c0-2,0.7-2.3,1.9-2.3c0.9,0,1.9,0.2,1.9,2.4C122.8,42.4,122.1,42.8,121,42.8z"/>
			<path fill="#444445" d="M128.9,36.8c-1,0-2.1,0.5-2.5,0.7l-0.1-0.6h-1.1V44h1.5v-5.3c0.4-0.2,1.4-0.6,2.1-0.6s0.9,0.2,0.9,0.9V44
				h1.5v-5.1C131.1,37.5,130.4,36.8,128.9,36.8z"/>
			<polygon fill="#444445" points="115.2,44 116.7,44 116.7,36.8 115.2,37.2 			"/>
			<path fill="#444445" d="M111.6,39.7c-1.5-0.2-1.5-0.3-1.5-0.8c0-0.4,0-0.7,1.4-0.7c0.6,0,1.5,0.1,1.9,0.2l0.6,0.2l-0.4-1.5l0,0
				c-0.6-0.2-1.3-0.2-2-0.2c-2,0-2.9,0.7-2.9,2.2c0,1.7,1,1.9,2.8,2.2c1.3,0.2,1.3,0.3,1.3,0.8c0,0.6,0,0.9-1.5,0.9
				c-0.7,0-1.7-0.2-2-0.3l-0.5-0.2l0.4,1.6l0,0c0.6,0.2,1.5,0.3,2.1,0.3c1.9,0,3.1-0.4,3.1-2.3C114.2,40.3,113.4,39.9,111.6,39.7z"
				/>
			<path fill="#444445" d="M71,43.2c-0.9,0-1.7-0.5-2.2-1.2v0.6c0,0.3-0.2,0.5-0.5,0.5c-0.3,0-0.5-0.2-0.5-0.5v-8.3
				c0-0.3,0.2-0.5,0.5-0.5c0.3,0,0.5,0.2,0.5,0.5v3.1c0.5-0.7,1.3-1.2,2.2-1.2c1.7,0,2.9,1.4,2.9,3.5C74,41.9,72.8,43.2,71,43.2z
				 M70.8,37.2c-0.8,0-1.6,0.5-2,1.1v3c0.4,0.6,1.2,1.1,2,1.1c1.4,0,2.1-1.1,2.1-2.5C72.9,38.3,72.1,37.2,70.8,37.2z"/>
			<path fill="#444445" d="M81,37L78,44.4c-0.4,0.9-1.1,1.4-2,1.4c-0.4,0-0.8,0-0.8-0.5c0-0.3,0.2-0.5,0.5-0.5c0.1,0,0.2,0,0.3,0
				c0.4,0,0.7-0.2,1-0.7l0.4-1l-2.5-6.1c0-0.1,0-0.1,0-0.2c0-0.3,0.2-0.5,0.5-0.5c0.2,0,0.4,0.1,0.5,0.3l2.1,5.2l2.1-5.2
				c0.1-0.2,0.3-0.3,0.5-0.3c0.3,0,0.5,0.2,0.5,0.5C81.1,36.9,81.1,37,81,37z"/>
		</g>
		<path fill="#433F42" d="M157.6,43.1c0,0.6-0.5,1.2-1.2,1.2s-1.2-0.5-1.2-1.2s0.5-1.2,1.2-1.2C157.1,41.9,157.6,42.4,157.6,43.1z
			 M155.5,43.1c0,0.5,0.4,0.9,0.9,0.9c0.5,0,0.9-0.4,0.9-0.9c0-0.5-0.4-0.9-0.9-0.9C155.9,42.1,155.5,42.5,155.5,43.1z M156.2,43.7
			h-0.3v-1.2c0.1,0,0.3,0,0.4,0c0.2,0,0.3,0,0.4,0.1c0.1,0,0.1,0.1,0.1,0.3c0,0.1-0.1,0.2-0.3,0.3v0c0.1,0,0.2,0.1,0.2,0.3
			c0,0.2,0.1,0.3,0.1,0.3h-0.3c0,0-0.1-0.1-0.1-0.3c0-0.1-0.1-0.2-0.3-0.2h-0.1L156.2,43.7L156.2,43.7L156.2,43.7z M156.2,43h0.1
			c0.1,0,0.3,0,0.3-0.2c0-0.1-0.1-0.2-0.3-0.2c-0.1,0-0.1,0-0.1,0L156.2,43L156.2,43z"/>
	</g>
	<path fill="#433F42" d="M158.3,24.4c0,1.3-1,2.3-2.3,2.3c-1.3,0-2.3-1-2.3-2.3c0-1.3,1.1-2.3,2.4-2.3
		C157.3,22.1,158.3,23.1,158.3,24.4z M154.2,24.4c0,1,0.8,1.8,1.8,1.8c1,0,1.8-0.8,1.8-1.8c0-1-0.7-1.8-1.8-1.8
		C154.9,22.5,154.2,23.3,154.2,24.4z M155.6,25.6h-0.5v-2.3c0.2,0,0.5-0.1,0.9-0.1c0.4,0,0.6,0.1,0.8,0.2c0.1,0.1,0.2,0.2,0.2,0.5
		c0,0.3-0.2,0.4-0.5,0.5v0c0.2,0.1,0.3,0.2,0.4,0.6s0.1,0.5,0.2,0.6h-0.6c-0.1-0.1-0.1-0.3-0.2-0.6c0-0.2-0.2-0.4-0.5-0.4h-0.2
		L155.6,25.6L155.6,25.6L155.6,25.6z M155.6,24.2h0.2c0.3,0,0.5-0.1,0.5-0.3c0-0.2-0.2-0.3-0.5-0.3c-0.1,0-0.2,0-0.3,0L155.6,24.2
		L155.6,24.2z"/>
	<g>
		<path fill="#52A2D9" d="M36.5,26.8c-6.5,0-11.7-4.6-11.7-11.6c0-7,5.2-11.6,11.7-11.6c3.4,0,6,1.3,7.8,3.1
			c0.3,0.3,0.4,0.7,0.4,1.1c0,0.8-0.7,1.6-1.5,1.6c-0.4,0-0.8-0.2-1.1-0.5c-1.4-1.4-3.5-2.3-5.6-2.3c-4.7,0-8.2,3.6-8.2,8.6
			c0,5,3.5,8.7,8.2,8.7c2.5,0,4.6-1.2,5.7-2.3v-4.1h-6c-0.8,0-1.5-0.6-1.5-1.5c0-0.8,0.6-1.5,1.5-1.5h7.1c1.2,0,2.2,1,2.2,2.2v4.3
			C45.5,24.7,40.6,26.8,36.5,26.8z"/>
		<path fill="#444445" d="M83.2,26.8c-3.3,0-6.3-1.1-8-2.8c-0.3-0.3-0.4-0.7-0.4-1.1c0-0.8,0.6-1.7,1.6-1.7c0.3,0,0.7,0.1,0.9,0.3
			c1.6,1.3,3.6,2.3,6.1,2.3c3.6,0,4.9-1.9,4.9-3.5C88.2,15.1,75,18.1,75,10c0-3.7,3.3-6.4,7.9-6.4c2.8,0,5.7,0.9,7.3,2.4
			c0.3,0.3,0.4,0.7,0.4,1.1c0,0.8-0.7,1.6-1.6,1.6c-0.3,0-0.6-0.1-0.9-0.3c-1.7-1.2-3.6-1.8-5.6-1.8c-2.5,0-4.2,1.3-4.2,3.2
			c0,4.6,13.2,1.9,13.2,10.2C91.6,23.6,89.2,26.8,83.2,26.8z"/>
		<path fill="#444445" d="M101.6,26.8c-5,0-8.2-3.9-8.2-8.5s3.1-8.5,8.2-8.5c5.1,0,8.2,3.8,8.2,8.5
			C109.8,22.9,106.7,26.8,101.6,26.8z M101.6,12.4c-3.2,0-5.1,2.8-5.1,5.9c0,3.1,1.9,5.9,5.1,5.9c3.3,0,5.1-2.8,5.1-5.9
			C106.7,15.2,104.9,12.4,101.6,12.4z"/>
		<path fill="#444445" d="M124.5,24.8c-1.2,1.2-2.9,2-5.3,2c-4.9,0-8.2-3.7-8.2-8.5c0-4.8,3.4-8.5,8.2-8.5c2.5,0,4.3,0.9,5.4,2.2
			c0.2,0.2,0.2,0.4,0.2,0.7c0,0.7-0.6,1.4-1.4,1.4c-0.3,0-0.7-0.1-0.9-0.4c-0.9-0.8-2-1.2-3.2-1.2c-3.2,0-5.3,2.5-5.3,5.9
			s2.1,5.9,5.3,5.9c1.2,0,2.3-0.4,3.2-1.2c0.3-0.2,0.6-0.3,0.9-0.3c0.7,0,1.4,0.5,1.4,1.3C124.9,24.3,124.8,24.6,124.5,24.8z"/>
		<path fill="#444445" d="M130.4,6.1c0,1.1-0.8,1.9-1.9,1.9c-1.1,0-1.9-0.9-1.9-1.9c0-1.1,0.9-2,1.9-2
			C129.5,4.2,130.4,5.1,130.4,6.1z M128.5,26.6c-0.8,0-1.5-0.7-1.5-1.5V11.4c0-0.8,0.7-1.5,1.6-1.5c0.8,0,1.5,0.7,1.5,1.5v13.7
			C130,25.9,129.3,26.6,128.5,26.6z"/>
		<path fill="#444445" d="M144.7,26.6h-0.1c-0.6,0-1.4-0.5-1.4-1.5v-0.5c-1.3,1.5-3.2,2.2-5.4,2.2c-2.7,0-5.7-1.8-5.7-5.4
			c0-3.7,3-5.3,5.7-5.3c2.2,0,4.1,0.7,5.4,2.2v-2.7c0-2.1-1.7-3.3-4-3.3c-1.5,0-2.9,0.5-4.1,1.4c-0.2,0.2-0.5,0.3-0.7,0.3
			c-0.6,0-1.3-0.5-1.3-1.2c0-0.3,0.1-0.5,0.3-0.8c1.6-1.6,4-2.3,6.2-2.3c3.5,0,6.5,1.5,6.5,5.7v9.7
			C146.2,25.9,145.5,26.6,144.7,26.6z M143.2,20.1c-0.9-1.3-2.5-1.9-4.2-1.9c-2.2,0-3.8,1.4-3.8,3.3c0,1.9,1.6,3.2,3.8,3.2
			c1.7,0,3.3-0.6,4.2-1.9V20.1z"/>
		<path fill="#444445" d="M150.8,26.6c-0.8,0-1.5-0.7-1.5-1.5V5.2c0-0.8,0.7-1.5,1.6-1.5c0.8,0,1.5,0.7,1.5,1.5v19.9
			C152.3,25.9,151.6,26.6,150.8,26.6z"/>
		<path fill="#52A2D9" d="M54.7,12.9c-1.6,0.1-3.1,0.8-4,2.3v10c0,0.8-0.7,1.5-1.5,1.5h0c-0.8,0-1.5-0.7-1.5-1.5V11.4
			c0-0.8,0.7-1.5,1.6-1.5c0.8,0,1.5,0.7,1.5,1.5v1.3c0.9-1.3,2.4-2.8,4.2-2.8c0.8,0,1.4,0.6,1.4,1.4C56.2,12.2,55.6,12.8,54.7,12.9z
			"/>
		<path fill="#52A2D9" d="M64.9,26.8c-5,0-8.2-3.9-8.2-8.5s3.1-8.5,8.2-8.5c5.1,0,8.2,3.8,8.2,8.5C73.1,22.9,70,26.8,64.9,26.8z
			 M64.9,12.4c-3.2,0-5.1,2.8-5.1,5.9c0,3.1,1.9,5.9,5.1,5.9c3.3,0,5.1-2.8,5.1-5.9C70,15.2,68.2,12.4,64.9,12.4z"/>
		<path fill="#444444" d="M150.8,26.7c-0.8,0-1.5-0.6-1.5-1.5V5.2c0-0.7,0.6-1.5,1.6-1.5c0.7,0,1.5,0.6,1.5,1.5v20.1
			C152.3,26,151.6,26.7,150.8,26.7z"/>
	</g>
</g>
</svg>
