<?xml version="1.0" encoding="utf-8"?>
<!-- Generator: Adobe Illustrator 17.1.0, SVG Export Plug-In . SVG Version: 6.00 Build 0)  -->
<!DOCTYPE svg PUBLIC "-//W3C//DTD SVG 1.1//EN" "http://www.w3.org/Graphics/SVG/1.1/DTD/svg11.dtd">
<svg version="1.1" id="Layer_1" xmlns="http://www.w3.org/2000/svg" xmlns:xlink="http://www.w3.org/1999/xlink" x="0px" y="0px"
	 viewBox="0 0 500 300" enable-background="new 0 0 500 300" xml:space="preserve">
<g>
	<g>
		<g>
			<g>
				<path fill="#444445" d="M402,41.9c-13.7,0-20.1,7.1-20.1,22.4c0,15.2,6.3,22.3,19.9,22.3c13.7,0,20.1-7.1,20.1-22.4
					C422,49,415.6,41.9,402,41.9z M402,82.6c-7.1,0-15.3-2.1-15.3-18.3c0-12.9,4.5-18.3,15.2-18.3c7.1,0,15.3,2.1,15.3,18.4
					C417.1,77.1,412.6,82.6,402,82.6z"/>
				<path fill="#444445" d="M362.5,61.6c-9.3-1.2-12.2-1.8-12.2-7.7c0-5,1.9-7.7,11.7-7.7c3.8,0,9.6,0.6,12.3,1.1l-1-4
					c-3.5-0.8-7.4-1.2-11.2-1.2c-14.5,0-16.5,6-16.5,11.8c0,8.7,3.3,10.1,16.2,11.8c7.7,1.1,11.1,1.8,11.1,7.8c0,7-2.8,8.9-12.9,8.9
					c-4.4,0-10-1-13.1-1.8l1.1,4.4c3.7,0.9,8.4,1.4,12,1.4c13.4,0,17.7-3.2,17.7-13C377.7,65.1,373.9,63.1,362.5,61.6z"/>
				<path fill="#444445" d="M435.6,43.5v-11c0-6.3,1.3-8.5,10.6-10.8l-1-4c-12.1,2.9-14.3,6.4-14.3,14.6v11.2h-8.1l1,4.1h7.1v38h4.7
					v-38h12.2l-1-4.1H435.6z"/>
				<path fill="#444445" d="M467.1,81.8c-4,0-4.3-3.5-4.3-7V47.6h9.8l-1-4.1h-8.8V27.3l-4.6,1.3v14.9h-7.4l1,4.1h6.3v27.8
					c0,7.3,2.6,10.7,8.2,10.7c2.5,0,4.8-0.3,8.7-0.8l-0.4-4.2C471.4,81.6,469.3,81.8,467.1,81.8z"/>
			</g>
			<g>
				<path fill="#444445" d="M109.5,42.1c-6.2,0-12.7,3.1-15.2,4.4l-0.8-3.6h-6.8v42.8h9V54.1c3-1.4,8.6-3.4,12.7-3.4
					c4.4,0,5.4,1,5.4,5.6v29.5h9.1V55.3C122.8,46.5,118.3,42.1,109.5,42.1z"/>
				<path fill="#444445" d="M142.8,43.2v-7.4c0-4.4,0-5.6,8.8-7.6l1.1-0.3l-1.9-8.3l-1.1,0.2c-12.4,2.7-16,6.2-16,15.7v7.6h-7.5
					l2.2,8.5h5.3v34.1h9.1V51.7H155v-0.4l-2-8.1H142.8z"/>
				<path fill="#444445" d="M186.7,74.6c-3,1.4-8.6,3.4-12.6,3.4c-4.4,0-5.4-1-5.4-5.6V42.9h-9.1v30.5c0,8.7,4.5,13.1,13.4,13.1
					c6.2,0,12.7-3.1,15.2-4.4l0.8,3.6h6.8V42.9h-9V74.6z"/>
				<polygon fill="#444445" points="69.5,85.8 78.6,85.8 78.6,24.8 69.5,27.4 				"/>
				<polygon fill="#444445" points="241.1,40.1 250.1,37.6 250.1,27.2 241.1,29.6 				"/>
				<path fill="#444445" d="M275.8,41.8c-13.7,0-20.4,7.4-20.4,22.5c0,15.1,6.6,22.5,20.3,22.5c13.7,0,20.4-7.4,20.4-22.5
					C296.1,49.1,289.5,41.8,275.8,41.8z M275.8,78.3c-5.7,0-11.2-1.1-11.2-14c0-11.7,4.1-14,11.2-14c5.7,0,11.2,1.1,11.2,14.1
					C286.9,76,282.9,78.3,275.8,78.3z"/>
				<path fill="#444445" d="M323.6,42.1c-6.2,0-12.7,3.1-15.2,4.4l-0.8-3.6h-6.8v42.8h9V54.1c2.6-1.2,8.3-3.4,12.7-3.4
					c4.4,0,5.4,1,5.4,5.6v29.5h9.1V55.3C336.9,46.5,332.4,42.1,323.6,42.1z"/>
				<polygon fill="#444445" points="241.1,85.8 250.1,85.8 250.1,42.2 241.1,44.8 				"/>
				<path fill="#444445" d="M219.5,59.6c-8.8-1.1-8.8-1.6-8.8-4.5c0-2.6,0-4.4,8.1-4.4c3.5,0,9.2,0.6,11.1,1.1l3.4,1.1l-2.3-9.2
					l-0.2-0.1c-3.5-0.9-7.8-1.4-11.8-1.4c-11.7,0-17.2,4.2-17.2,13c0,10.3,5.7,11.5,16.6,13c7.6,1.1,7.9,1.8,7.9,4.5
					c0,3.7,0,5.5-9.1,5.5c-4.2,0-10.1-1.2-12.2-1.9l-2.9-1l2.4,9.7l0.2,0.1c3.6,1,8.6,1.6,12.5,1.6c11.3,0,18.3-2.3,18.3-14
					C235.3,63.4,230.2,61.1,219.5,59.6z"/>
			</g>
			<g>
				<path fill="#444445" d="M492,82c0,3.2-2.5,5.7-5.8,5.7c-3.2,0-5.8-2.5-5.8-5.7c0-3.1,2.6-5.6,5.8-5.6
					C489.5,76.4,492,78.9,492,82z M481.9,82c0,2.5,1.9,4.5,4.4,4.5c2.4,0,4.3-2,4.3-4.5c0-2.5-1.9-4.5-4.4-4.5
					C483.8,77.5,481.9,79.6,481.9,82z M485.4,85h-1.3v-5.6c0.5-0.1,1.2-0.2,2.2-0.2c1.1,0,1.5,0.2,1.9,0.5c0.3,0.2,0.6,0.6,0.6,1.2
					c0,0.7-0.5,1.1-1.2,1.3v0.1c0.5,0.2,0.8,0.6,1,1.4c0.2,0.8,0.3,1.2,0.4,1.4h-1.4c-0.2-0.2-0.3-0.7-0.4-1.4
					c-0.1-0.6-0.4-0.9-1.2-0.9h-0.6V85z M485.4,81.8h0.6c0.7,0,1.3-0.2,1.3-0.8c0-0.5-0.4-0.9-1.2-0.9c-0.3,0-0.6,0-0.7,0.1V81.8z"
					/>
			</g>
		</g>
		<polygon fill="#E24926" points="7.8,229.5 92.3,177.1 92.3,107.7 7.8,160.2 		"/>
		<polygon opacity="0.9" fill="#79BE43" points="7.8,160.2 92.3,107.7 54.5,160.2 		"/>
		<g>
			<path fill="#E24926" d="M166,227.1c-17.7,0-33.7-6-43.1-15.1c-1.4-1.6-2.2-3.6-2.2-5.6c0-4.5,3.4-8.8,8.3-8.8
				c1.6,0,3.6,0.5,5,1.6c8.3,7,19.5,12.3,32.6,12.3c19.5,0,26.3-10.3,26.3-18.8c0-28.5-70.7-12.1-70.7-55.5
				c0-19.8,17.7-34.3,42.6-34.3c15,0,30.3,4.7,39.3,13c1.6,1.4,2.3,3.6,2.3,5.6c0,4.5-4,8.3-8.5,8.3c-1.6,0-3.4-0.5-4.9-1.6
				c-8.8-6.5-19.3-9.6-29.8-9.6c-13.5,0-22.7,7-22.7,17.3c0,24.9,70.7,10.1,70.7,55C211.4,209.6,198.4,227.1,166,227.1z"/>
			<path fill="#E24926" d="M296.1,147.4l-39,94.3c-5.6,13.2-15.1,18.6-26.9,18.6c-5.6,0-11.5-1.3-11.5-7.2c0-4.1,3.2-7.2,7.2-7.2
				c1.4,0,2.9,0.2,4.1,0c4.9,0,8.8-2,11.7-8.3l5.1-11.5l-32.3-78.6c-0.4-0.9-0.5-1.8-0.5-2.7c0-4,3.2-7.9,8.1-7.9
				c3.1,0,6.1,1.8,7.4,5.1l25.8,64.6l25.6-64.6c1.3-3.1,4.3-5.1,7.6-5.1c4.7,0,8.1,3.8,8.1,7.9C296.7,145.6,296.5,146.7,296.1,147.4
				z"/>
			<path fill="#E24926" d="M374.5,226c-4.3,0-7.9-3.6-7.9-7.9V169c0-14.4-7.4-19.1-18.6-19.1c-10.3,0-19.5,6.1-24.2,12.8v55.4
				c0,4.3-3.6,7.9-8.1,7.9c-4.3,0-7.9-3.6-7.9-7.9v-73.6c0-4.1,3.6-7.8,8.3-7.8c4.1,0,7.8,3.6,7.8,7.8v5.6
				c5.9-7,17.5-14.4,30.8-14.4c18.4,0,28,9.6,28,28v54.5C382.6,222.4,379,226,374.5,226z"/>
			<path fill="#E24926" d="M470.6,216.5c-6.5,6.3-15.3,10.6-28.3,10.6c-26.2,0-44.2-19.7-44.2-45.8c0-26,18-45.6,44.2-45.6
				c13.3,0,23.1,4.7,29,11.5c0.9,1.1,1.3,2.3,1.3,3.8c0,4-3.4,7.2-7.4,7.2c-1.8,0-3.6-0.7-5-2c-4.9-4.3-10.6-6.3-17-6.3
				c-17.3,0-28.5,13.2-28.5,31.4s11.2,31.6,28.5,31.6c6.5,0,12.1-2.2,17-6.5c1.4-1.1,3.2-1.6,5-1.6c3.8,0,7.6,2.9,7.6,7
				C472.8,213.4,472,215.2,470.6,216.5z"/>
		</g>
		<g>
			<path fill="#E24926" d="M298,250.3c-0.8,0-1.5-0.6-2.6-0.6c-2.3,0-3.5,1.5-3.5,4.3v1.7h3.3c1,0,1.9,0.8,1.9,2
				c0,1-0.8,1.9-1.9,1.9h-3.3v18.1c0,1.2-1,2.2-2.2,2.2c-1.2,0-2.2-1-2.2-2.2v-18.1h-2.4c-1,0-1.9-0.8-1.9-2c0-1,0.8-1.9,1.9-1.9
				h2.4V254c0-4.9,2.8-7.9,7.2-7.9c2.1,0,5,0.7,5,2.4C299.7,249.6,298.8,250.3,298,250.3z"/>
			<path fill="#E24926" d="M311.4,280.1c-7.4,0-12-5.7-12-12.5c0-6.8,4.6-12.5,12-12.5c7.4,0,12,5.6,12,12.5
				C323.5,274.4,318.9,280.1,311.4,280.1z M311.4,259c-4.7,0-7.4,4-7.4,8.6c0,4.6,2.7,8.6,7.4,8.6c4.8,0,7.4-4,7.4-8.6
				C318.9,263,316.2,259,311.4,259z"/>
			<path fill="#E24926" d="M339.4,259.6c-2.3,0.2-4.5,1.2-5.9,3.3v14.7c0,1.2-1,2.2-2.2,2.2h0c-1.2,0-2.1-1-2.1-2.2v-20.1
				c0-1.1,1-2.1,2.3-2.1c1.1,0,2.1,1,2.1,2.1v1.9c1.3-1.8,3.5-4,6.2-4c1.1,0,2,0.8,2,2C341.6,258.6,340.6,259.5,339.4,259.6z"/>
		</g>
		<g>
			<path fill="#E24926" d="M367.1,280c-9.7,0-17.5-7-17.5-17.5c0-10.5,7.8-17.4,17.5-17.4c5.2,0,9,2,11.7,4.7
				c0.5,0.4,0.6,1.1,0.6,1.6c0,1.3-1,2.3-2.3,2.3c-0.6,0-1.2-0.3-1.7-0.8c-2.1-2.1-5.2-3.4-8.3-3.4c-7.1,0-12.3,5.4-12.3,13
				c0,7.5,5.3,13,12.3,13c3.7,0,6.9-1.8,8.5-3.4V266h-9c-1.2,0-2.2-1-2.2-2.2c0-1.2,1-2.2,2.2-2.2h10.7c1.8,0,3.3,1.5,3.3,3.3v6.4
				C380.6,276.8,373.2,280,367.1,280z"/>
			<path fill="#E24926" d="M418.8,279.6c-1.2,0-2.2-1-2.2-2.2v-14.3c0-2.9-1.3-4.7-4.2-4.7c-2.5,0-4.9,1.8-6.1,3.5v15.6
				c0,1.2-1,2.2-2.3,2.2c-1.2,0-2.2-1-2.2-2.2v-14.3c0-2.9-1.2-4.7-4.3-4.7c-2.4,0-4.8,1.8-6,3.6v15.5c0,1.2-1,2.2-2.3,2.2
				c-1.2,0-2.2-1-2.2-2.2v-20.6c0-1.2,1-2.2,2.3-2.2c1.2,0,2.2,1,2.2,2.2v1.6c1-1.5,4.2-4,7.9-4c3.7,0,5.9,1.9,6.6,4.5
				c1.4-2.2,4.6-4.5,8.2-4.5c4.5,0,6.9,2.4,6.9,7.4v15.7C421.1,278.6,420.1,279.6,418.8,279.6z"/>
			<path fill="#E24926" d="M445.7,279.6h-0.2c-0.9,0-2.1-0.8-2.1-2.2v-0.8c-2,2.2-4.8,3.3-8,3.3c-4,0-8.5-2.7-8.5-8.1
				c0-5.5,4.4-8,8.5-8c3.3,0,6.1,1.1,8,3.2V263c0-3.1-2.5-4.9-6-4.9c-2.3,0-4.3,0.7-6.1,2.1c-0.4,0.3-0.8,0.4-1.1,0.4
				c-0.9,0-1.9-0.7-1.9-1.8c0-0.4,0.2-0.8,0.5-1.2c2.3-2.3,6-3.4,9.3-3.4c5.3,0,9.8,2.3,9.8,8.5v14.6
				C448,278.6,447,279.6,445.7,279.6z M443.5,269.8c-1.4-1.9-3.8-2.8-6.3-2.8c-3.3,0-5.7,2-5.7,5c0,2.8,2.4,4.8,5.7,4.8
				c2.5,0,5-0.9,6.3-2.8V269.8z"/>
			<path fill="#E24926" d="M460.3,248.8c0,1.6-1.3,2.9-2.9,2.9c-1.6,0-2.9-1.3-2.9-2.9c0-1.6,1.3-2.9,2.9-2.9
				C459,245.9,460.3,247.2,460.3,248.8z M457.4,279.6c-1.2,0-2.2-1-2.2-2.2v-20.6c0-1.2,1-2.2,2.3-2.2c1.2,0,2.2,1,2.2,2.2v20.6
				C459.7,278.6,458.7,279.6,457.4,279.6z"/>
			<path fill="#E24926" d="M469.2,279.6c-1.2,0-2.2-1-2.2-2.2v-29.9c0-1.2,1-2.2,2.3-2.2c1.2,0,2.2,1,2.2,2.2v29.9
				C471.4,278.6,470.4,279.6,469.2,279.6z"/>
		</g>
	</g>
	<g>
		<path fill="#E24926" d="M477.4,248.4V245h-1c-0.1,0-0.2-0.1-0.2-0.3v-0.2c0-0.2,0.1-0.3,0.2-0.3h3c0.1,0,0.2,0.1,0.2,0.3v0.2
			c0,0.2-0.1,0.3-0.2,0.3h-1v3.5c0,0.1-0.1,0.2-0.4,0.2h-0.2C477.5,248.6,477.4,248.6,477.4,248.4z"/>
		<path fill="#E24926" d="M480.1,248.4v-4.1c0-0.1,0.1-0.2,0.4-0.2h0.3c0.2,0,0.3,0.1,0.4,0.2l1.1,2l1.1-2c0.1-0.1,0.2-0.2,0.4-0.2
			h0.3c0.3,0,0.4,0.1,0.4,0.2v4.1c0,0.1-0.1,0.2-0.4,0.2H484c-0.3,0-0.4-0.1-0.4-0.2v-2.7l0,0l-0.9,1.7c-0.1,0.1-0.1,0.1-0.3,0.1
			h-0.2c-0.1,0-0.2,0-0.3-0.1l-0.9-1.7l0,0v2.7c0,0.1-0.1,0.2-0.4,0.2h-0.2C480.2,248.6,480.1,248.6,480.1,248.4z"/>
	</g>
</g>
</svg>
