<?xml version="1.0" encoding="utf-8"?>
<!-- Generator: Adobe Illustrator 17.1.0, SVG Export Plug-In . SVG Version: 6.00 Build 0)  -->
<!DOCTYPE svg PUBLIC "-//W3C//DTD SVG 1.1//EN" "http://www.w3.org/Graphics/SVG/1.1/DTD/svg11.dtd">
<svg version="1.1" id="Layer_1" xmlns="http://www.w3.org/2000/svg" xmlns:xlink="http://www.w3.org/1999/xlink" x="0px" y="0px"
	 viewBox="0 0 500 212" enable-background="new 0 0 500 212" xml:space="preserve">
<g>
	<polygon fill="#52A2D9" points="55.9,110 97,84.5 97,50.8 55.9,76.3 	"/>
	<polygon fill="#EB8023" points="101.3,110 142.4,84.5 142.4,50.8 101.3,76.3 	"/>
	<g>
		<path fill="#EB8023" d="M192.2,109.4c-12.3,0-23.6-4.2-30.1-10.6c-1-1.1-1.5-2.5-1.5-3.9c0-3.1,2.4-6.2,5.8-6.2
			c1.1,0,2.5,0.4,3.5,1.1c5.8,4.9,13.6,8.6,22.8,8.6c13.6,0,18.4-7.2,18.4-13.1c0-19.9-49.4-8.4-49.4-38.8
			c0-13.9,12.3-23.9,29.7-23.9c10.5,0,21.2,3.3,27.5,9.1c1.1,1,1.6,2.5,1.6,3.9c0,3.1-2.8,5.8-5.9,5.8c-1.1,0-2.4-0.4-3.4-1.1
			c-6.2-4.5-13.5-6.7-20.8-6.7c-9.4,0-15.9,4.9-15.9,12.1c0,17.4,49.4,7.1,49.4,38.4C223.9,97.2,214.8,109.4,192.2,109.4z"/>
		<path fill="#EB8023" d="M281.8,108.6c-3,0-5.5-2.5-5.5-5.5V68.8c0-10.1-5.2-13.4-13-13.4c-7.2,0-13.6,4.3-16.9,8.9v38.7
			c0,3-2.5,5.5-5.7,5.5c-3,0-5.5-2.5-5.5-5.5V51.7c0-2.9,2.5-5.4,5.8-5.4c2.9,0,5.4,2.5,5.4,5.4v3.9c4.2-4.9,12.2-10.1,21.5-10.1
			c12.8,0,19.5,6.7,19.5,19.5v38C287.4,106.1,284.9,108.6,281.8,108.6z"/>
		<path fill="#EB8023" d="M344.8,108.6h-0.4c-2.3,0-5.2-1.9-5.2-5.5v-2c-4.9,5.4-11.8,8.3-20,8.3c-10.1,0-21.2-6.8-21.2-20.2
			c0-13.7,11.1-19.9,21.2-19.9c8.3,0,15.2,2.6,20,8.1V67.2c0-7.7-6.3-12.2-14.9-12.2c-5.7,0-10.7,1.8-15.2,5.3c-0.9,0.6-1.9,1-2.8,1
			c-2.3,0-4.7-1.8-4.7-4.4c0-1,0.4-2,1.1-2.9c5.8-5.8,15-8.4,23.2-8.4c13.1,0,24.4,5.7,24.4,21.2v36.4
			C350.4,106.1,347.9,108.6,344.8,108.6z M339.2,84.2c-3.4-4.7-9.4-7.1-15.7-7.1c-8.2,0-14.1,5-14.1,12.3c0,7.1,5.9,12,14.1,12
			c6.3,0,12.3-2.3,15.7-6.9V84.2z"/>
		<path fill="#EB8023" d="M396,109.4c-8.1,0-15.1-3.7-20-10.3v27.3c0,2.9-2.5,5.4-5.7,5.4c-3,0-5.5-2.5-5.5-5.4V51.7
			c0-2.9,2.5-5.4,5.8-5.4c2.9,0,5.4,2.5,5.4,5.4v4c4.4-6,11.7-10.2,20-10.2c15.9,0,27.1,12,27.1,31.9
			C423,97.2,411.8,109.4,396,109.4z M392.8,55.5c-6.8,0-13.9,4-16.9,8.9v25.9c3,4.9,10.1,9.1,16.9,9.1c11.5,0,18.4-9.3,18.4-22
			S404.3,55.5,392.8,55.5z"/>
	</g>
	<g>
		<g>
			<path fill="#444445" d="M378.7,155.7c-8.4,0-12.3,4.4-12.3,13.8c0,9.4,3.9,13.7,12.3,13.7c8.4,0,12.3-4.4,12.3-13.8
				C391,160,387.1,155.7,378.7,155.7z M378.7,180.7c-4.4,0-9.4-1.3-9.4-11.3c0-7.9,2.8-11.3,9.3-11.3c4.4,0,9.4,1.3,9.4,11.3
				C388,177.3,385.2,180.7,378.7,180.7z"/>
			<path fill="#444445" d="M354.4,167.8c-5.7-0.7-7.5-1.1-7.5-4.8c0-3.1,1.1-4.7,7.2-4.7c2.4,0,5.9,0.4,7.6,0.7l-0.6-2.4
				c-2.1-0.5-4.6-0.7-6.9-0.7c-8.9,0-10.1,3.7-10.1,7.3c0,5.3,2,6.2,10,7.3c4.7,0.7,6.8,1.1,6.8,4.8c0,4.3-1.7,5.4-7.9,5.4
				c-2.7,0-6.1-0.6-8.1-1.1l0.7,2.7c2.3,0.5,5.1,0.9,7.4,0.9c8.2,0,10.9-1.9,10.9-8C363.8,169.9,361.4,168.7,354.4,167.8z"/>
			<path fill="#444445" d="M399.3,156.6v-6.7c0-3.9,0.8-5.2,6.5-6.6l-0.6-2.5c-7.4,1.8-8.8,3.9-8.8,9v6.9h-5l0.6,2.5h4.3v23.3h2.9
				v-23.3h7.5l-0.6-2.5H399.3z"/>
			<path fill="#444445" d="M418.7,180.1c-2.4,0-2.6-2.1-2.6-4.3v-16.7h6l-0.6-2.5H416v-10l-2.8,0.8v9.2h-4.5l0.6,2.5h3.9v17.1
				c0,4.5,1.6,6.5,5,6.5c1.6,0,2.9-0.2,5.3-0.5l-0.3-2.6C421.3,180,420,180.1,418.7,180.1z"/>
		</g>
		<g>
			<path fill="#444445" d="M199.1,155.8c-3.8,0-7.8,1.9-9.4,2.7l-0.5-2.2h-4.2v26.3h5.5v-19.4c1.8-0.9,5.3-2.1,7.8-2.1
				c2.7,0,3.3,0.6,3.3,3.4v18.1h5.6v-18.8C207.3,158.5,204.5,155.8,199.1,155.8z"/>
			<path fill="#444445" d="M219.5,156.5v-4.5c0-2.7,0-3.4,5.4-4.7l0.7-0.2l-1.2-5.1l-0.7,0.1c-7.6,1.7-9.8,3.8-9.8,9.7v4.7h-4.6
				l1.3,5.2h3.3v20.9h5.6v-20.9h7.5v-0.3l-1.3-5H219.5z"/>
			<path fill="#444445" d="M246.5,175.8c-1.8,0.9-5.3,2.1-7.8,2.1c-2.7,0-3.3-0.6-3.3-3.4v-18.1h-5.6v18.8c0,5.4,2.8,8.1,8.2,8.1
				c3.8,0,7.8-1.9,9.4-2.7l0.5,2.2h4.1v-26.3h-5.5V175.8z"/>
			<polygon fill="#444445" points="174.5,182.6 180.1,182.6 180.1,145.2 174.5,146.8 			"/>
			<polygon fill="#444445" points="279.9,154.6 285.5,153 285.5,146.6 279.9,148.1 			"/>
			<path fill="#444445" d="M301.2,155.6c-8.4,0-12.5,4.5-12.5,13.8c0,9.3,4.1,13.8,12.5,13.8c8.4,0,12.5-4.5,12.5-13.8
				C313.7,160.1,309.6,155.6,301.2,155.6z M301.2,178c-3.5,0-6.9-0.7-6.9-8.6c0-7.2,2.5-8.6,6.8-8.6c3.5,0,6.9,0.7,6.9,8.6
				C308,176.6,305.5,178,301.2,178z"/>
			<path fill="#444445" d="M330.5,155.8c-3.8,0-7.8,1.9-9.3,2.7l-0.5-2.2h-4.2v26.3h5.5v-19.4c1.6-0.8,5.1-2.1,7.8-2.1
				c2.7,0,3.3,0.6,3.3,3.4v18.1h5.6v-18.8C338.7,158.5,336,155.8,330.5,155.8z"/>
			<polygon fill="#444445" points="279.9,182.6 285.5,182.6 285.5,155.8 279.9,157.4 			"/>
			<path fill="#444445" d="M266.7,166.5c-5.4-0.7-5.4-1-5.4-2.8c0-1.6,0-2.7,4.9-2.7c2.2,0,5.6,0.4,6.8,0.7l2.1,0.7l-1.4-5.7l-0.2,0
				c-2.2-0.5-4.8-0.8-7.3-0.8c-7.2,0-10.6,2.6-10.6,8c0,6.3,3.5,7.1,10.2,8c4.7,0.7,4.8,1.1,4.8,2.8c0,2.2,0,3.4-5.6,3.4
				c-2.6,0-6.2-0.7-7.5-1.2l-1.8-0.6l1.5,5.9l0.1,0c2.2,0.6,5.3,1,7.7,1c6.9,0,11.2-1.4,11.2-8.6
				C276.3,168.9,273.2,167.4,266.7,166.5z"/>
		</g>
		<g>
			<path fill="#444445" d="M126.1,170.2c0,2.1-0.3,4.1-0.9,5.8c-0.6,1.7-1.4,3.1-2.4,4.3c-1,1.2-2.3,2.1-3.7,2.7c-1.4,0.6-3,1-4.7,1
				c-1.8,0-3.5-0.4-5.1-1.3c-1.5-0.9-2.8-1.9-3.8-3.3v2.2c0,0.5-0.2,1-0.6,1.4c-0.4,0.4-0.9,0.6-1.5,0.6c-0.6,0-1-0.2-1.4-0.6
				c-0.4-0.4-0.6-0.9-0.6-1.4v-32.9c0-0.5,0.2-1,0.6-1.4c0.4-0.4,0.9-0.6,1.5-0.6c0.5,0,1,0.2,1.4,0.6c0.4,0.4,0.6,0.8,0.6,1.4v12.3
				c1-1.4,2.3-2.6,3.8-3.4c1.5-0.8,3.2-1.2,5-1.2c1.7,0,3.3,0.3,4.7,1c1.4,0.7,2.7,1.6,3.7,2.8c1,1.2,1.8,2.6,2.4,4.3
				C125.8,166.2,126.1,168.1,126.1,170.2z M121.8,170.2c0-1.4-0.2-2.8-0.6-4c-0.4-1.2-0.9-2.3-1.6-3.2c-0.7-0.9-1.6-1.6-2.6-2.1
				c-1-0.5-2.2-0.8-3.6-0.8c-1.6,0-3.1,0.4-4.6,1.2c-1.4,0.8-2.5,1.8-3.2,3v11.9c0.7,1.2,1.8,2.1,3.2,2.9c1.4,0.8,2.9,1.2,4.6,1.2
				c1.3,0,2.5-0.3,3.6-0.8c1-0.5,1.9-1.2,2.6-2.1c0.7-0.9,1.3-2,1.6-3.2C121.6,173,121.8,171.7,121.8,170.2z"/>
			<path fill="#444445" d="M154.2,158.8c0,0.3-0.1,0.5-0.2,0.7l-12.2,29.1c-0.8,1.9-1.9,3.2-3.2,4.1c-1.3,0.8-2.8,1.2-4.5,1.2
				c-0.4,0-0.7,0-1.1-0.1c-0.4,0-0.7-0.1-1-0.2c-0.3-0.1-0.6-0.3-0.8-0.5c-0.2-0.3-0.3-0.6-0.3-1c0-0.5,0.2-1,0.5-1.3
				c0.4-0.3,0.8-0.5,1.2-0.5c0.3,0,0.5,0,0.7,0c0.2,0,0.4,0,0.7,0c0.8,0,1.6-0.1,2.2-0.5c0.6-0.4,1.2-1.1,1.7-2.2l1.7-4l-10-24.1
				c-0.1-0.2-0.2-0.4-0.2-0.7c0-0.5,0.2-1,0.6-1.4c0.4-0.4,0.9-0.6,1.5-0.6c0.4,0,0.8,0.1,1.1,0.3c0.3,0.2,0.6,0.5,0.8,0.9l8.4,20.6
				l8.3-20.6c0.2-0.4,0.4-0.7,0.8-0.9c0.3-0.2,0.7-0.3,1.1-0.3c0.6,0,1.1,0.2,1.5,0.6C154,157.8,154.2,158.2,154.2,158.8z"/>
		</g>
		<g>
			<path fill="#444445" d="M434,180.3c0,1.9-1.6,3.5-3.5,3.5c-2,0-3.6-1.5-3.6-3.5c0-1.9,1.6-3.5,3.6-3.5
				C432.4,176.9,434,178.4,434,180.3z M427.8,180.3c0,1.5,1.2,2.8,2.7,2.8c1.5,0,2.6-1.2,2.6-2.7c0-1.5-1.1-2.8-2.7-2.8
				C428.9,177.6,427.8,178.8,427.8,180.3z M429.9,182.1h-0.8v-3.5c0.3,0,0.8-0.1,1.3-0.1c0.6,0,0.9,0.1,1.2,0.3
				c0.2,0.1,0.4,0.4,0.4,0.7c0,0.4-0.3,0.7-0.7,0.8v0c0.3,0.1,0.5,0.4,0.6,0.8c0.1,0.5,0.2,0.7,0.2,0.8h-0.8
				c-0.1-0.1-0.2-0.4-0.3-0.8c-0.1-0.4-0.3-0.5-0.7-0.5h-0.4V182.1z M429.9,180.2h0.4c0.4,0,0.8-0.1,0.8-0.5c0-0.3-0.2-0.5-0.7-0.5
				c-0.2,0-0.4,0-0.4,0V180.2z"/>
		</g>
	</g>
</g>
</svg>
