<?xml version="1.0" encoding="utf-8"?>
<!-- Generator: Adobe Illustrator 17.1.0, SVG Export Plug-In . SVG Version: 6.00 Build 0)  -->
<!DOCTYPE svg PUBLIC "-//W3C//DTD SVG 1.1//EN" "http://www.w3.org/Graphics/SVG/1.1/DTD/svg11.dtd">
<svg version="1.1" id="Layer_1" xmlns="http://www.w3.org/2000/svg" xmlns:xlink="http://www.w3.org/1999/xlink" x="0px" y="0px"
	 viewBox="0 0 500 212" enable-background="new 0 0 500 212" xml:space="preserve">
<g>
	<g>
		<g>
			<path fill="#444445" d="M335.9,24.4c-9.5-0.1-14,4.9-14,15.5c-0.1,10.6,4.3,15.5,13.8,15.6c9.5,0.1,14-4.9,14-15.5
				C349.7,29.5,345.3,24.5,335.9,24.4z M335.7,52.7c-4.9,0-10.6-1.5-10.5-12.8c0.1-8.9,3.2-12.7,10.6-12.7c4.9,0,10.6,1.5,10.5,12.9
				C346.2,49,343.1,52.7,335.7,52.7z"/>
			<path fill="#444445" d="M308.3,37.9c-6.4-0.8-8.5-1.3-8.5-5.4c0-3.4,1.3-5.3,8.2-5.3c2.7,0,6.6,0.5,8.6,0.8l-0.7-2.8
				c-2.4-0.5-5.2-0.8-7.8-0.8c-10.1-0.1-11.5,4.1-11.5,8.2c0,6,2.2,7,11.2,8.3c5.4,0.8,7.7,1.3,7.7,5.4c0,4.8-2,6.1-9,6.1
				c-3,0-6.9-0.7-9.1-1.3l0.8,3.1c2.6,0.6,5.8,1,8.3,1c9.3,0.1,12.3-2.1,12.4-8.9C318.9,40.4,316.2,39.1,308.3,37.9z"/>
			<path fill="#444445" d="M359.2,25.7l0-7.6c0-4.4,1-5.9,7.4-7.5L366,7.8c-8.4,1.9-10,4.4-10,10.1l0,7.8l-5.6,0l0.7,2.9l4.9,0
				l-0.2,26.4l3.3,0l0.2-26.4l8.5,0.1l-0.7-2.9L359.2,25.7z"/>
			<path fill="#444445" d="M380.9,52.4c-2.7,0-3-2.4-3-4.9l0.1-18.9l6.8,0l-0.7-2.9l-6.1,0l0.1-11.3l-3.2,0.9l-0.1,10.4l-5.1,0
				l0.7,2.9l4.4,0l-0.1,19.3c0,5,1.8,7.4,5.6,7.4c1.8,0,3.3-0.2,6-0.5l-0.3-2.9C383.9,52.3,382.4,52.4,380.9,52.4z"/>
		</g>
		<g>
			<path fill="#444445" d="M132.7,23.4c-4.3,0-8.8,2.1-10.6,3l-0.5-2.5l-4.7,0l-0.2,29.8l6.3,0l0.1-22c2.1-1,6-2.3,8.8-2.3
				c3.1,0,3.7,0.7,3.7,3.9l-0.1,20.5l6.3,0l0.1-21.2C141.9,26.5,138.8,23.4,132.7,23.4z"/>
			<path fill="#444445" d="M155.8,24.2l0-5.1c0-3,0-3.9,6.2-5.3l0.8-0.2l-1.3-5.8L160.7,8c-8.6,1.8-11.1,4.3-11.2,10.9l0,5.3l-5.2,0
				l1.5,5.9l3.7,0l-0.1,23.7l6.3,0l0.1-23.7l8.5,0.1l0-0.3l-1.4-5.6L155.8,24.2z"/>
			<path fill="#444445" d="M186.2,46.3c-2.1,1-6,2.3-8.8,2.3c-3.1,0-3.7-0.7-3.7-3.9l0.1-20.5l-6.3,0l-0.1,21.2
				c0,6.1,3.1,9.1,9.2,9.2c4.3,0,8.8-2.1,10.6-3l0.5,2.5l4.7,0l0.2-29.8l-6.3,0L186.2,46.3z"/>
			<polygon fill="#444445" points="104.8,53.5 111.1,53.6 111.3,11.2 105,13 			"/>
			<polygon fill="#444445" points="224.1,22.5 230.4,20.8 230.4,13.6 224.1,15.2 			"/>
			<path fill="#444445" d="M248.2,23.8c-9.5-0.1-14.2,5-14.3,15.6c-0.1,10.5,4.5,15.6,14,15.7c9.5,0.1,14.2-5,14.3-15.6
				C262.3,29,257.7,23.9,248.2,23.8z M248,49.2c-3.9,0-7.8-0.8-7.7-9.8c0-8.1,2.9-9.7,7.8-9.7c3.9,0,7.8,0.8,7.7,9.8
				C255.8,47.6,253,49.2,248,49.2z"/>
			<path fill="#444445" d="M281.4,24.3c-4.3,0-8.8,2.1-10.6,3l-0.5-2.5l-4.7,0l-0.2,29.8l6.3,0l0.1-22c1.8-0.8,5.8-2.3,8.8-2.3
				c3.1,0,3.7,0.7,3.7,3.9l-0.1,20.5l6.3,0l0.1-21.2C290.6,27.4,287.5,24.3,281.4,24.3z"/>
			<polygon fill="#444445" points="223.9,54.2 230.2,54.3 230.4,24 224.1,25.8 			"/>
			<path fill="#444445" d="M209.1,36c-6.1-0.8-6.1-1.1-6.1-3.2c0-1.8,0-3.1,5.6-3c2.5,0,6.4,0.5,7.7,0.8l2.4,0.8l-1.6-6.4l-0.2,0
				c-2.4-0.6-5.4-1-8.2-1c-8.2,0-12,2.8-12,9c0,7.1,3.9,8,11.5,9.1c5.3,0.8,5.5,1.3,5.4,3.2c0,2.5,0,3.8-6.4,3.8
				c-2.9,0-7-0.8-8.5-1.4l-2-0.7l1.6,6.7l0.2,0c2.5,0.7,6,1.2,8.7,1.2c7.9,0,12.7-1.5,12.8-9.7C220,38.7,216.5,37,209.1,36z"/>
		</g>
		<g>
			<path fill="#444445" d="M398.2,52.7c0,2.2-1.8,3.9-4,3.9c-2.2,0-4-1.8-4-4c0-2.2,1.8-3.9,4.1-3.9
				C396.5,48.8,398.2,50.5,398.2,52.7z M391.2,52.6c0,1.7,1.3,3.1,3,3.1c1.7,0,3-1.4,3-3.1c0-1.7-1.3-3.2-3-3.2
				C392.5,49.5,391.2,50.9,391.2,52.6z M393.6,54.7l-0.9,0l0-3.9c0.3,0,0.9-0.1,1.5-0.1c0.7,0,1.1,0.1,1.3,0.3
				c0.2,0.2,0.4,0.4,0.4,0.8c0,0.5-0.4,0.8-0.8,0.9l0,0.1c0.4,0.1,0.6,0.4,0.7,1c0.1,0.6,0.2,0.8,0.3,1l-1,0c-0.1-0.1-0.2-0.5-0.3-1
				c-0.1-0.4-0.3-0.6-0.8-0.6l-0.4,0L393.6,54.7z M393.6,52.5l0.4,0c0.5,0,0.9-0.2,0.9-0.6c0-0.4-0.3-0.6-0.8-0.6
				c-0.2,0-0.4,0-0.5,0L393.6,52.5z"/>
		</g>
	</g>
	<polygon fill="#52A2D9" points="82.6,150.4 138.5,116.2 138.7,70.6 82.9,104.8 	"/>
	<polygon opacity="0.9" fill="#79BE43" points="82.9,104.8 138.7,70.6 113.6,105 	"/>
	<g>
		<path fill="#52A2D9" d="M186.4,147.6c-11.7-0.1-22.3-4.1-28.5-10.2c-0.9-1.1-1.4-2.4-1.4-3.7c0-3,2.3-5.8,5.5-5.8
			c1.1,0,2.4,0.4,3.3,1.1c5.5,4.7,12.8,8.2,21.6,8.3c12.9,0.1,17.5-6.7,17.5-12.3c0.1-18.9-46.8-8.3-46.6-37.1
			c0.1-13.1,11.8-22.6,28.3-22.5c9.9,0.1,20,3.2,26,8.8c1.1,1,1.5,2.4,1.5,3.7c0,3-2.7,5.5-5.6,5.5c-1.1,0-2.3-0.4-3.2-1.1
			c-5.8-4.3-12.7-6.4-19.7-6.4c-9-0.1-15.1,4.6-15.1,11.4c-0.1,16.5,46.8,7,46.6,36.7C216.5,136.2,207.9,147.8,186.4,147.6z"/>
		<path fill="#52A2D9" d="M272,95.4l-26.2,62.3c-3.8,8.7-10.1,12.2-17.9,12.2c-3.7,0-7.6-0.9-7.6-4.8c0-2.7,2.2-4.8,4.8-4.7
			c1,0,1.9,0.1,2.7,0c3.2,0,5.9-1.3,7.8-5.4l3.4-7.6L218.1,95c-0.2-0.6-0.4-1.2-0.3-1.8c0-2.6,2.2-5.2,5.4-5.2c2,0,4.1,1.2,4.9,3.4
			l16.8,42.9L262,91.6c0.8-2,2.9-3.3,5-3.3c3.1,0,5.4,2.5,5.3,5.3C272.4,94.2,272.3,94.9,272,95.4z"/>
		<path fill="#52A2D9" d="M322.9,147.7c-2.9,0-5.2-2.4-5.2-5.3l0.2-32.5c0.1-9.6-4.8-12.7-12.2-12.7c-6.8,0-12.9,4-16.1,8.4
			l-0.2,36.7c0,2.9-2.4,5.2-5.4,5.2c-2.9,0-5.2-2.4-5.2-5.3l0.3-48.7c0-2.7,2.4-5.1,5.5-5.1c2.7,0,5.1,2.4,5.1,5.2l0,3.7
			c4-4.6,11.6-9.5,20.5-9.4c12.2,0.1,18.5,6.4,18.4,18.6l-0.2,36.1C328.3,145.4,325.9,147.8,322.9,147.7z"/>
		<path fill="#52A2D9" d="M385.8,141.8c-4.3,4.2-10.2,7-18.8,6.9c-17.3-0.1-29.2-13.2-29.1-30.5c0.1-17.2,12.1-30.1,29.4-30
			c8.8,0.1,15.3,3.2,19.2,7.8c0.6,0.7,0.8,1.6,0.8,2.5c0,2.6-2.3,4.8-4.9,4.7c-1.2,0-2.4-0.5-3.3-1.3c-3.2-2.9-7-4.2-11.2-4.2
			c-11.5-0.1-18.9,8.6-19,20.7c-0.1,12.1,7.3,20.9,18.7,21c4.3,0,8-1.4,11.3-4.2c1-0.7,2.2-1.1,3.4-1.1c2.5,0,5,1.9,5,4.7
			C387.2,139.8,386.7,141,385.8,141.8z"/>
	</g>
	<g>
		<path fill="#52A2D9" d="M387.6,193.4c-0.4-0.4-0.6-1-0.6-1.6c0-0.6,0.2-1.1,0.7-1.6c0.4-0.4,1-0.6,1.6-0.6c0.6,0,1.1,0.2,1.6,0.7
			c0.4,0.4,0.6,1,0.6,1.6c0,0.6-0.2,1.1-0.7,1.6c-0.4,0.4-1,0.6-1.6,0.6C388.5,194.1,388,193.9,387.6,193.4z M387.9,190.6
			c-0.4,0.4-0.5,0.8-0.5,1.3c0,0.5,0.2,0.9,0.5,1.3c0.4,0.4,0.8,0.5,1.3,0.5c0.5,0,0.9-0.2,1.3-0.5c0.4-0.4,0.5-0.8,0.5-1.3
			c0-0.5-0.2-0.9-0.5-1.3c-0.4-0.4-0.8-0.5-1.3-0.5C388.6,190,388.2,190.2,387.9,190.6z M388.3,192.9l0-2.2c0-0.1,0-0.1,0.1-0.1
			l0.7,0c0.6,0,0.9,0.2,0.9,0.7c0,0.3-0.1,0.4-0.4,0.5l0,0c0.1,0,0.2,0.2,0.3,0.3l0.3,0.8c0,0,0,0.1,0,0.1c0,0-0.1,0.1-0.2,0.1
			l-0.1,0c-0.1,0-0.2,0-0.2-0.1l-0.3-0.7c0-0.1-0.1-0.1-0.1-0.2c0,0-0.1,0-0.2,0l-0.1,0l0,0.8c0,0.1-0.1,0.1-0.2,0.1l-0.1,0
			C388.4,193.1,388.3,193,388.3,192.9z M388.9,191.7l0.3,0c0.1,0,0.1,0,0.2-0.1c0.1-0.1,0.1-0.1,0.1-0.2c0-0.1,0-0.1-0.1-0.2
			c-0.1,0-0.1-0.1-0.2-0.1l-0.3,0L388.9,191.7z"/>
		<g>
			<path fill="#52A2D9" d="M240.3,187.4c-0.5,0-0.9-0.4-1.6-0.4c-1.4,0-2.2,0.9-2.2,2.6l0,1l2,0c0.6,0,1.1,0.5,1.1,1.2
				c0,0.6-0.5,1.1-1.1,1.1l-2,0l-0.1,11c0,0.7-0.6,1.3-1.4,1.3c-0.7,0-1.3-0.6-1.3-1.3l0.1-11l-1.4,0c-0.6,0-1.1-0.5-1.1-1.2
				c0-0.6,0.5-1.1,1.1-1.1l1.4,0l0-1c0-3,1.7-4.8,4.4-4.8c1.3,0,3,0.5,3,1.5C241.3,187,240.8,187.4,240.3,187.4z"/>
			<path fill="#52A2D9" d="M248.4,205.5c-4.5,0-7.2-3.5-7.2-7.6s2.8-7.5,7.3-7.5c4.5,0,7.3,3.4,7.2,7.6S252.9,205.5,248.4,205.5z
				 M248.4,192.7c-2.9,0-4.5,2.4-4.5,5.2c0,2.8,1.6,5.2,4.5,5.3c2.9,0,4.5-2.4,4.5-5.2C252.9,195.2,251.3,192.7,248.4,192.7z"/>
			<path fill="#52A2D9" d="M265.4,193.2c-1.4,0.1-2.7,0.7-3.6,2l-0.1,8.9c0,0.7-0.6,1.3-1.4,1.3l0,0c-0.7,0-1.3-0.6-1.3-1.3
				l0.1-12.2c0-0.7,0.6-1.3,1.4-1.3c0.7,0,1.3,0.6,1.3,1.3l0,1.1c0.8-1.1,2.1-2.4,3.7-2.4c0.7,0,1.2,0.5,1.2,1.2
				C266.8,192.6,266.2,193.1,265.4,193.2z"/>
		</g>
		<g>
			<path fill="#52A2D9" d="M286.6,205.9c-6.3,0-10.6-4.7-10.6-11c0-6.3,4.4-10.9,10.7-10.9c6.3,0,10.6,4.7,10.6,11
				C297.3,201.3,292.9,206,286.6,205.9z M286.7,186.9c-4.5,0-7.4,3.4-7.4,8.1c0,4.7,2.8,8.1,7.3,8.2c4.5,0,7.4-3.4,7.5-8.1
				C294.1,190.4,291.2,186.9,286.7,186.9z"/>
			<path fill="#52A2D9" d="M312.7,205.9c-0.8,0-1.4-0.6-1.4-1.4l0-0.9c-1.1,1.3-3.1,2.4-5.5,2.4c-3.2,0-4.9-1.6-4.8-4.9l0.1-9.7
				c0-0.7,0.6-1.4,1.5-1.4c0.7,0,1.4,0.6,1.4,1.4l-0.1,8.7c0,2.5,1.3,3.3,3.2,3.3c1.8,0,3.4-1,4.3-2.2l0.1-9.8
				c0-0.7,0.6-1.4,1.5-1.4c0.7,0,1.4,0.6,1.4,1.4l-0.1,12.9C314.2,205.3,313.5,205.9,312.7,205.9z"/>
			<path fill="#52A2D9" d="M322.9,206.1c-2.4,0-3.7-1.4-3.6-3.8l0.1-9.5l-1.5,0c-0.7,0-1.2-0.5-1.2-1.3c0-0.7,0.5-1.2,1.2-1.2l1.5,0
				l0-3c0-0.7,0.6-1.4,1.5-1.4c0.8,0,1.4,0.6,1.4,1.4l0,3l2.1,0c0.7,0,1.2,0.5,1.2,1.3c0,0.7-0.5,1.2-1.2,1.2l-2.1,0l-0.1,8.8
				c0,1.2,0.6,1.9,1.5,1.9c0.3,0,0.7-0.2,1-0.2c0.7,0,1.2,0.5,1.2,1.2C325.8,205.7,324.6,206.1,322.9,206.1z"/>
			<path fill="#52A2D9" d="M329.8,206c-0.8,0-1.4-0.6-1.4-1.4l0.1-18.7c0-0.7,0.6-1.4,1.5-1.4c0.7,0,1.4,0.6,1.4,1.4l-0.1,18.7
				C331.2,205.4,330.6,206,329.8,206z"/>
			<path fill="#52A2D9" d="M342.5,206.3c-4.7,0-7.7-3.7-7.6-8.1s3-8,7.7-8c4.8,0,7.7,3.7,7.7,8.1S347.3,206.3,342.5,206.3z
				 M342.6,192.7c-3,0-4.8,2.6-4.8,5.5c0,2.9,1.7,5.5,4.7,5.6c3.1,0,4.8-2.6,4.8-5.5C347.4,195.3,345.7,192.7,342.6,192.7z"/>
			<path fill="#52A2D9" d="M360.7,206.4c-4.7,0-7.7-3.7-7.6-8.1s3-8,7.7-8c4.8,0,7.7,3.7,7.7,8.1S365.4,206.4,360.7,206.4z
				 M360.8,192.8c-3,0-4.8,2.6-4.8,5.5c0,2.9,1.7,5.5,4.7,5.6c3.1,0,4.8-2.6,4.8-5.5C365.5,195.4,363.8,192.8,360.8,192.8z"/>
			<path fill="#52A2D9" d="M383.1,206.3c-0.4,0-0.9-0.2-1.1-0.6l-4.8-6.3l-2.4,2.4l0,3c0,0.8-0.6,1.4-1.4,1.4
				c-0.8,0-1.4-0.6-1.4-1.4l0.1-18.7c0-0.7,0.6-1.4,1.5-1.4c0.7,0,1.4,0.6,1.4,1.4l-0.1,12.4l7.3-7.6c0.3-0.3,0.6-0.4,0.9-0.4
				c0.7,0,1.3,0.6,1.3,1.3c0,0.3-0.1,0.6-0.4,0.9l-4.8,4.9l5,6.4c0.2,0.2,0.3,0.5,0.3,0.8C384.5,205.6,384,206.3,383.1,206.3z"/>
		</g>
	</g>
</g>
</svg>
